<svg xmlns="http://www.w3.org/2000/svg" xmlns:xlink="http://www.w3.org/1999/xlink" width="1920" height="1407" viewBox="0 0 1920 1407"><defs><style>.a{clip-path:url(#b);}.b{fill:#251f1d;}.c,.d{fill:#a3d882;}.d{font-size:65px;}.d,.f{font-family:Menlo-Regular, Menlo;}.aa,.ad,.e,.o,.p,.q,.r,.s,.t,.y{fill:none;}.e{stroke:#a2a2a2;stroke-width:5px;}.aa,.e,.r,.t,.y{stroke-linecap:round;}.f,.m{fill:#679ad1;}.f{font-size:85px;}.g,.v{fill:#dcdcaf;}.h{fill:#d4d4d4;}.i,.z{fill:#f8d949;}.j,.w{fill:#aadafb;}.k{fill:#74985d;}.ab,.l{fill:#bc89bd;}.n,.u,.x{fill:#fff;}.o,.y{stroke:#f8d949;}.aa,.o{stroke-linejoin:round;}.aa,.o,.p,.q,.r,.s,.t,.y{stroke-width:8px;}.aa,.p{stroke:#bc89bd;}.q,.r{stroke:#aadafb;}.s,.t{stroke:#dcdcaf;}.u,.w{font-size:75px;}.u,.x{font-family:ArialMT, Arial;}.ab,.v,.w,.z{font-family:Arial-BoldMT, Arial;font-weight:700;}.x{font-weight:400;}.ac{stroke:none;}.ae{fill:#1e1e1e;}</style><clipPath id="b"><rect width="1920" height="1407"/></clipPath></defs><g id="a" class="a"><rect class="ae" width="1920" height="1407"/><g transform="translate(0 325)"><rect class="b" width="932" height="88" transform="translate(0 995)"/><g transform="translate(-850.628 -21.721)"><path class="c" d="M30.5,0C47.345,0,61,13.208,61,29.5S0,45.792,0,29.5,13.655,0,30.5,0Z" transform="translate(863.628 1062.721)"/><path class="c" d="M61,29.5C61,45.792,47.345,59,30.5,59S0,45.792,0,29.5,61,13.208,61,29.5Z" transform="translate(863.628 995.721)"/><rect class="b" width="88" height="15" transform="translate(855.628 1012.721)"/><rect class="b" width="89" height="11" transform="translate(850.628 1090.721)"/><path class="b" d="M9.5,0,19,17H0Z" transform="translate(884.628 1075.721)"/><path class="b" d="M9.5,0,19,17H0Z" transform="translate(903.628 1044.721) rotate(180)"/></g><text class="d" transform="translate(91 1062)"><tspan x="0" y="0">2.1 Define a Function</tspan></text><path class="b" d="M1756.5,978.5l76.948,89.223H1756.5Z" transform="translate(-831.511 12)"/><line class="e" x2="924.516" transform="translate(0.473 990.5)"/><line class="e" x1="76.629" y1="89" transform="translate(924.989 990.5)"/></g><text class="f" transform="translate(226.789 399.016)"><tspan x="0" y="0">const </tspan><tspan class="g" y="0">add</tspan><tspan y="0"> </tspan><tspan class="h" y="0">=</tspan><tspan y="0"> </tspan><tspan class="i" y="0">(</tspan><tspan class="j" y="0">num1, num2</tspan><tspan class="i" y="0">)</tspan><tspan y="0" xml:space="preserve"> =&gt; </tspan><tspan class="i" y="0">{</tspan><tspan class="k"><tspan x="0" y="150" xml:space="preserve">  // some more code here</tspan></tspan><tspan class="l"><tspan x="0" y="300" xml:space="preserve">  return</tspan><tspan class="m" y="300"> </tspan><tspan class="j" y="300">num1</tspan><tspan class="n" y="300" xml:space="preserve"> +</tspan><tspan class="m" y="300"> </tspan><tspan class="j" y="300">num2</tspan></tspan><tspan class="i"><tspan x="0" y="450">}</tspan></tspan></text><path class="o" d="M3615.664,1556.727v86.582c0,35.9-37.152,35.557-37.152,35.557H2223.326s-38.115-3.665-38.115,35.8v356.459c0,22.378,0,36.226,38.362,36.226,0,0,1433.032.911,1471.048,0s37.9-36.174,37.9-36.174l-2.089-515.019s.671-36.171-37.954-36.171h-38.721C3614.733,1519.984,3615.664,1556.727,3615.664,1556.727Z" transform="translate(-1981.211 -1220.484)"/><g class="p" transform="translate(664.727 607.016)"><rect class="ac" width="623" height="127" rx="22"/><rect class="ad" x="4" y="4" width="615" height="119" rx="18"/></g><g class="q" transform="translate(828.727 307.016)"><rect class="ac" width="641" height="127" rx="22"/><rect class="ad" x="4" y="4" width="633" height="119" rx="18"/></g><line class="r" y1="59" transform="translate(1149.5 248.5)"/><g class="s" transform="translate(508.5 307.016)"><rect class="ac" width="210" height="127" rx="22"/><rect class="ad" x="4" y="4" width="202" height="119" rx="18"/></g><line class="t" y1="95" transform="translate(618.5 210.5)"/><text class="u" transform="translate(42 87)"><tspan x="0" y="0">The </tspan><tspan class="v" y="0">name</tspan><tspan y="0" xml:space="preserve"> of the function</tspan><tspan x="0" y="86">is what we use to </tspan><tspan class="v" y="86">call</tspan><tspan y="86" xml:space="preserve"> it</tspan></text><text class="w" transform="translate(1885 127)"><tspan x="-812.988" y="0">Parameters</tspan><tspan class="x" y="0" xml:space="preserve"> are how we</tspan><tspan class="x"><tspan x="-875.61" y="86">pass data into the function</tspan></tspan></text><line class="y" y2="48" transform="translate(348.5 887.5)"/><text class="u" transform="translate(29 1004)"><tspan x="0" y="0">The </tspan><tspan class="z" y="0">body</tspan><tspan y="0" xml:space="preserve"> of the function is </tspan><tspan x="0" y="86">anything between the </tspan><tspan class="i" y="86">{ }</tspan><tspan y="86">. </tspan><tspan x="0" y="172">It is what runs when the </tspan><tspan x="0" y="258">function is </tspan><tspan class="v" y="258">called</tspan></text><path class="aa" d="M3274.87,1847.053H3391.7c22.929,0,20.775,34.584,20.775,34.584V2151" transform="translate(-1990 -1177)"/><text class="u" transform="translate(1032 1042)"><tspan x="0" y="0">The </tspan><tspan class="ab" y="0">return value</tspan><tspan y="0" xml:space="preserve"> is </tspan><tspan x="0" y="86">what’s next to the return </tspan><tspan x="0" y="172">keyword. It’s how we can </tspan><tspan x="0" y="258">get data out of a function</tspan></text></g></svg>