<svg xmlns="http://www.w3.org/2000/svg" xmlns:xlink="http://www.w3.org/1999/xlink" viewBox="0 0 1920 1080"><defs><style>.a{clip-path:url(#b);}.b,.g{fill:#fff;}.b,.e{font-size:100px;}.b{font-family:ArialMT, Arial;}.c,.d{font-family:Arial-BoldMT, Arial;}.c,.d,.e,.f,.g{font-weight:700;}.d,.e,.f{fill:#aadafb;}.e,.f,.g{font-family:CourierNewPS-BoldMT, Courier New;}.f{font-size:101px;letter-spacing:0.075em;}.g{font-size:205px;letter-spacing:0.05em;}.h,.i,.j,.k{font-size:208px;}.i{letter-spacing:0.07em;}.j{letter-spacing:0.045em;}.k{letter-spacing:0.03em;}.l,.m,.q,.s{fill:none;}.l,.m{stroke:#c9c9c9;}.l,.q{stroke-width:5px;}.m{stroke-width:7px;}.n{fill:#251f1d;}.o,.p{fill:#a3d882;}.p{font-size:65px;font-family:Menlo-Regular, Menlo;}.q{stroke:#a2a2a2;stroke-linecap:round;}.r{stroke:none;}.t{fill:#1e1e1e;}</style><clipPath id="b"><rect width="1920" height="1080"/></clipPath></defs><g id="a" class="a"><rect class="t" width="1920" height="1080"/><text class="b" transform="translate(954 803)"><tspan x="-616.04" y="0">But the last</tspan><tspan class="c" y="0"> </tspan><tspan class="d" y="0">index</tspan><tspan class="c" y="0"> </tspan><tspan y="0">is only 11</tspan><tspan x="-769.775" y="115">because the first</tspan><tspan class="c" y="115"> </tspan><tspan class="d" y="115">index</tspan><tspan class="c" y="115"> </tspan><tspan y="115">is always</tspan><tspan class="c" y="115"> </tspan><tspan y="115">0</tspan></text><text class="b" transform="translate(323 215)"><tspan x="0" y="0">The length of the string is 12</tspan></text><text class="e" transform="translate(1519 597)"><tspan x="0" y="0">10</tspan></text><text class="e" transform="translate(1658 597)"><tspan x="0" y="0">11</tspan></text><text class="f" transform="translate(120 597)"><tspan x="0" y="0" xml:space="preserve"> 0 1 2 3 4 5 6 7 8 9</tspan></text><text class="g" transform="translate(154 438)"><tspan x="0" y="0">H</tspan><tspan class="h" y="0">ell</tspan><tspan class="i" y="0">o</tspan><tspan class="j" y="0"> </tspan><tspan class="i" y="0">th</tspan><tspan class="k" y="0">e</tspan><tspan class="i" y="0">re!</tspan></text><g class="l" transform="translate(147 275)"><rect class="r" width="1640" height="394" rx="20"/><rect class="s" x="2.5" y="2.5" width="1635" height="389" rx="17.5"/></g><line class="l" y2="390" transform="translate(285.5 277.5)"/><line class="l" y2="390" transform="translate(420.5 276.5)"/><line class="l" y2="390" transform="translate(557.5 278.5)"/><line class="l" y2="390" transform="translate(693.5 278.5)"/><line class="l" y2="390" transform="translate(830.5 278.5)"/><line class="l" y2="390" transform="translate(966.5 278.5)"/><line class="l" y2="390" transform="translate(1101.5 278.5)"/><line class="l" y2="390" transform="translate(1239.5 278.5)"/><line class="l" y2="390" transform="translate(1375.5 278.5)"/><line class="l" y2="390" transform="translate(1511.5 278.5)"/><line class="l" y2="390" transform="translate(1647.5 278.5)"/><line class="m" x1="1633" transform="translate(147.5 471.5)"/><g transform="translate(0 3.5)"><rect class="n" width="795" height="88" transform="translate(0 995)"/><g transform="translate(-850.628 -21.721)"><path class="o" d="M30.5,0C47.345,0,61,13.208,61,29.5S0,45.792,0,29.5,13.655,0,30.5,0Z" transform="translate(863.628 1062.721)"/><path class="o" d="M61,29.5C61,45.792,47.345,59,30.5,59S0,45.792,0,29.5,61,13.208,61,29.5Z" transform="translate(863.628 995.721)"/><rect class="n" width="88" height="15" transform="translate(855.628 1012.721)"/><rect class="n" width="89" height="11" transform="translate(850.628 1090.721)"/><path class="n" d="M9.5,0,19,17H0Z" transform="translate(884.628 1075.721)"/><path class="n" d="M9.5,0,19,17H0Z" transform="translate(903.628 1044.721) rotate(180)"/></g><text class="p" transform="translate(91 1062)"><tspan x="0" y="0">4.1 String Indexes</tspan></text><path class="n" d="M1756.5,978.5l81.337,89.223H1756.5Z" transform="translate(-961.5 8.777)"/><line class="q" x2="794.838" transform="translate(0.5 990.5)"/><line class="q" x1="81" y1="89" transform="translate(795.337 990.5)"/></g></g></svg>