<svg xmlns="http://www.w3.org/2000/svg" xmlns:xlink="http://www.w3.org/1999/xlink" viewBox="0 0 1920 1920"><defs><clipPath id="c"><rect width="1920" height="1920"/></clipPath></defs><g id="d" clip-path="url(#b)"><rect width="1920" height="1920" fill="#1e1e1e"/><g transform="translate(0 6)"><rect width="959" height="88" rx="10" transform="translate(225 506)" fill="#6a9152"/><rect width="712" height="88" rx="10" transform="translate(321 305)" fill="#cca800"/><rect width="174" height="88" rx="10" transform="translate(1388 196)" fill="#bc89bd"/><rect width="322" height="88" rx="10" transform="translate(1033 196)" fill="#679ad1"/><rect width="513" height="88" rx="10" transform="translate(484 196)" fill="#c5947c"/><text transform="translate(235 265)" fill="#fff" font-size="83" font-family="CourierNewPS-BoldMT, Courier New" font-weight="700"><tspan x="0" y="0">for </tspan><tspan y="0" letter-spacing="0.1em">(</tspan><tspan y="0">let i = 0; i &lt; 2; i+</tspan><tspan y="0" letter-spacing="0.1em">+</tspan><tspan y="0">) {</tspan><tspan x="0" y="101" xml:space="preserve">  console.log(i)</tspan><tspan x="0" y="202">}</tspan><tspan x="0" y="303">console.log(&quot;Done&quot;)</tspan></text></g><g transform="translate(185 168)" fill="none" stroke="#679ad1" stroke-width="8"><rect width="1551" height="465" rx="30" stroke="none"/><rect x="4" y="4" width="1543" height="457" rx="26" fill="none"/></g><text transform="translate(667 114)" fill="#fff" font-size="85" font-family="ArialMT, Arial"><tspan x="0" y="0">Given this loop:</tspan></text><g transform="translate(0 843)"><rect width="694.413" height="88" transform="translate(0 995)" fill="#251f1d"/><path d="M1756.5,978.5l81.337,89.223H1756.5Z" transform="translate(-1062.087 8.777)" fill="#251f1d"/><g transform="translate(0 991)"><path d="M30.5,0C47.345,0,61,13.208,61,29.5S0,45.792,0,29.5,13.655,0,30.5,0Z" transform="translate(13 50)" fill="#a3d882"/><path d="M61,29.5C61,45.792,47.345,59,30.5,59S0,45.792,0,29.5,61,13.208,61,29.5Z" transform="translate(13 -17)" fill="#a3d882"/><rect width="88" height="15" transform="translate(5)" fill="#251f1d"/><rect width="89" height="11" transform="translate(0 78)" fill="#251f1d"/><path d="M9.5,0,19,17H0Z" transform="translate(34 63)" fill="#251f1d"/><path d="M9.5,0,19,17H0Z" transform="translate(53 30) rotate(180)" fill="#251f1d"/></g><text transform="translate(91 1060)" fill="#a3d882" font-size="66" font-family="ArialMT, Arial"><tspan x="0" y="0">5.2 For Loop Stages</tspan></text><line x2="694.25" transform="translate(0.5 990.5)" fill="none" stroke="#a2a2a2" stroke-linecap="round" stroke-width="5"/><line x1="81" y1="89" transform="translate(694.75 990.5)" fill="none" stroke="#a2a2a2" stroke-linecap="round" stroke-width="5"/></g><g transform="translate(65 118.328)"><g transform="translate(0.129)"><line x2="1696.143" transform="translate(46.936 979.106)" fill="none" stroke="#707070" stroke-linecap="round" stroke-width="8"/><line x2="1696.143" transform="translate(46.936 1077.117)" fill="none" stroke="#707070" stroke-linecap="round" stroke-width="8"/><line x2="1696.143" transform="translate(46.936 1174.176)" fill="none" stroke="#707070" stroke-linecap="round" stroke-width="8"/><line x2="1696.143" transform="translate(46.936 1271.234)" fill="none" stroke="#707070" stroke-linecap="round" stroke-width="8"/><line x2="1696.143" transform="translate(46.936 1368.293)" fill="none" stroke="#707070" stroke-linecap="round" stroke-width="8"/><line x2="1696.143" transform="translate(46.936 1466.303)" fill="none" stroke="#707070" stroke-linecap="round" stroke-width="8"/><line x2="1696.143" transform="translate(46.936 1561.742)" fill="none" stroke="#707070" stroke-linecap="round" stroke-width="8"/><line x2="1696.143" transform="translate(46.871 786.989)" fill="none" stroke="#707070" stroke-linecap="round" stroke-width="8"/><line x2="1696.143" transform="translate(46.871 883.668)" fill="none" stroke="#707070" stroke-linecap="round" stroke-width="8"/></g><line y2="991.224" transform="translate(1293.5 680.672)" fill="none" stroke="#707070" stroke-width="8"/><line y2="991.224" transform="translate(652.5 680.672)" fill="none" stroke="#707070" stroke-width="8"/><text transform="translate(973 756)" fill="#aadafb" font-size="64" font-family="CourierNewPS-BoldMT, Courier New" font-weight="700"><tspan x="-96.016" y="0">i</tspan><tspan y="0" xml:space="preserve" fill="#d4d4d4"> = </tspan><tspan y="0" fill="#bacdab">0</tspan><tspan x="-96.016" y="98">i</tspan><tspan y="98" xml:space="preserve" fill="#d4d4d4"> &lt; </tspan><tspan y="98" fill="#bacdab">2</tspan><tspan x="-268.844" y="196">console</tspan><tspan y="196" fill="#d4d4d4">.</tspan><tspan y="196" fill="#dcdcaf">log</tspan><tspan y="196" fill="#d4d4d4">(</tspan><tspan y="196">i</tspan><tspan y="196" fill="#d4d4d4">)</tspan><tspan x="-57.609" y="294">i</tspan><tspan y="294" fill="#d4d4d4">++</tspan><tspan fill="#bacdab"><tspan x="-96.016" y="392">1</tspan><tspan y="392" xml:space="preserve" fill="#d4d4d4"> &lt; </tspan><tspan y="392">2</tspan></tspan><tspan x="-268.844" y="490">console</tspan><tspan y="490" fill="#d4d4d4">.</tspan><tspan y="490" fill="#dcdcaf">log</tspan><tspan y="490" fill="#d4d4d4">(</tspan><tspan y="490">i</tspan><tspan y="490" fill="#d4d4d4">)</tspan><tspan x="-57.609" y="588">i</tspan><tspan y="588" fill="#d4d4d4">++</tspan><tspan fill="#bacdab"><tspan x="-115.219" y="686">i</tspan><tspan y="686" xml:space="preserve" fill="#d4d4d4"> &lt; </tspan><tspan y="686">2</tspan><tspan y="686" fill="#d4d4d4"> </tspan></tspan><tspan fill="#d4d4d4"><tspan x="0" y="784"></tspan></tspan><tspan font-size="50"><tspan x="-285.046" y="882">console</tspan><tspan y="882" fill="#d4d4d4">.</tspan><tspan y="882" fill="#dcdcaf">log</tspan><tspan y="882" fill="#d4d4d4">(</tspan><tspan y="882" fill="#c5947c">&quot;Done&quot;</tspan><tspan y="882" fill="#d4d4d4">)</tspan></tspan></text><text transform="translate(1329 757)" fill="#fff" font-size="64" font-family="Arial-BoldMT, Arial" font-weight="700"><tspan x="0" y="0">i is 0</tspan><tspan x="0" y="98">0 &lt; 2 is true</tspan><tspan x="0" y="196">Log 0</tspan><tspan x="0" y="294">i is now 1</tspan><tspan x="0" y="392">1 &lt; 2 is true</tspan><tspan x="0" y="490">Log 1</tspan><tspan x="0" y="588">i is now 2</tspan><tspan x="0" y="686">2 &lt; 2 is false</tspan><tspan x="0" y="784"></tspan><tspan x="0" y="882">Log &quot;Done&quot;</tspan></text><text transform="translate(76 757)" fill="#c5947c" font-size="64" font-family="Arial-BoldMT, Arial" font-weight="700"><tspan x="0" y="0">initialization</tspan><tspan fill="#679ad1"><tspan x="0" y="98">conditional check</tspan></tspan><tspan fill="#f8d949"><tspan x="0" y="196">loop body</tspan></tspan><tspan fill="#bc89bd"><tspan x="0" y="294">increment</tspan></tspan><tspan fill="#679ad1"><tspan x="0" y="392">conditional check</tspan></tspan><tspan fill="#f8d949"><tspan x="0" y="490">loop body</tspan></tspan><tspan fill="#bc89bd"><tspan x="0" y="588">increment</tspan></tspan><tspan fill="#679ad1"><tspan x="0" y="686">conditional check</tspan></tspan><tspan fill="#fff"><tspan x="0" y="784">Leave loop</tspan></tspan><tspan fill="#a3d882"><tspan x="0" y="882">outside code</tspan></tspan></text></g><text transform="translate(304 745)" fill="#fff" font-size="85" font-family="ArialMT, Arial"><tspan x="0" y="0">Here’s exactly what would happen:</tspan></text></g></svg>