<svg xmlns="http://www.w3.org/2000/svg" xmlns:xlink="http://www.w3.org/1999/xlink" viewBox="0 0 1920 1080"><defs><clipPath id="b"><rect width="1920" height="1080"/></clipPath></defs><g id="a" clip-path="url(#b)"><rect width="1920" height="1080" fill="#1e1e1e"/><text transform="translate(133 480)" fill="#679ad1" font-size="136" font-family="CourierNewPS-BoldMT, Courier New" font-weight="700"><tspan x="0" y="0">let</tspan><tspan y="0" fill="#707070"> </tspan><tspan y="0" fill="#aadafb">myMood</tspan><tspan y="0" fill="#707070"> </tspan><tspan y="0" fill="#d4d4d4">=</tspan><tspan y="0" fill="#707070"> </tspan><tspan y="0" fill="#c5947c">“Happy”</tspan></text><g transform="translate(130 338)" fill="none" stroke="#679ad1" stroke-width="7"><rect width="266" height="207" rx="46" stroke="none"/><rect x="3.5" y="3.5" width="259" height="200" rx="42.5" fill="none"/></g><g transform="translate(429 338)" fill="none" stroke="#aadafb" stroke-width="7"><rect width="553" height="207" rx="46" stroke="none"/><rect x="3.5" y="3.5" width="546" height="200" rx="42.5" fill="none"/></g><g transform="translate(1179 338)" fill="none" stroke="#c5947c" stroke-width="7"><rect width="612" height="207" rx="46" stroke="none"/><rect x="3.5" y="3.5" width="605" height="200" rx="42.5" fill="none"/></g><line y2="77.5" transform="translate(263 546.25)" fill="none" stroke="#679ad1" stroke-linecap="round" stroke-width="5"/><text transform="translate(59 724)" fill="#fff" font-size="85" font-family="ArialMT, Arial"><tspan x="0" y="0">Use the </tspan><tspan y="0" fill="#679ad1" font-family="Arial-BoldItalicMT, Arial" font-weight="700" font-style="italic">let</tspan><tspan y="0" xml:space="preserve"> or </tspan><tspan y="0" fill="#679ad1" font-family="Arial-BoldItalicMT, Arial" font-weight="700" font-style="italic">const</tspan><tspan y="0" fill="#679ad1"> </tspan><tspan x="0" y="98">keyword to declare </tspan><tspan x="0" y="196">a variable </tspan></text><line y1="86" transform="translate(710.5 252)" fill="none" stroke="#aadafb" stroke-width="5"/><text transform="translate(278 136)" fill="#fff" font-size="85" font-family="ArialMT, Arial"><tspan x="0" y="0">Every variable needs a</tspan><tspan fill="#aadafb" font-family="Arial-BoldItalicMT, Arial" font-weight="700" font-style="italic"><tspan x="0" y="98">name</tspan><tspan y="98" xml:space="preserve" fill="#fff" font-family="ArialMT, Arial" font-weight="400" font-style="normal"> in order to use it</tspan></tspan></text><line y2="77.5" transform="translate(1484.5 546.25)" fill="none" stroke="#c5947c" stroke-linecap="round" stroke-width="7"/><text transform="translate(1090 713)" fill="#fff" font-size="85" font-family="ArialMT, Arial"><tspan x="0" y="0">Every variable has a</tspan><tspan fill="#c5947c" font-family="Arial-BoldItalicMT, Arial" font-weight="700" font-style="italic"><tspan x="0" y="98">value</tspan><tspan y="98" fill="#fff" font-family="ArialMT, Arial" font-weight="400" font-style="normal">, here it’s the </tspan></tspan><tspan x="0" y="196">string of text “Happy”</tspan></text><g transform="translate(0 991)"><path d="M30.5,0C47.345,0,61,13.208,61,29.5S0,45.792,0,29.5,13.655,0,30.5,0Z" transform="translate(13 50)" fill="#a3d882"/><path d="M61,29.5C61,45.792,47.345,59,30.5,59S0,45.792,0,29.5,61,13.208,61,29.5Z" transform="translate(13 -17)" fill="#a3d882"/><rect width="88" height="15" transform="translate(5)" fill="#1e1e1e"/><path d="M0,0H89V11H0Z" transform="translate(0 78)" fill="#1e1e1e"/><path d="M9.5,0,19,17H0Z" transform="translate(34 63)" fill="#251f1d"/><path d="M9.5,0,19,17H0Z" transform="translate(53 29) rotate(180)" fill="#251f1d"/></g><text transform="translate(93 1066)" fill="#a3d882" font-size="80" font-family="ArialMT, Arial"><tspan x="0" y="0">1.1 Declare a Variable</tspan></text><line x2="878.163" transform="translate(0.5 990.5)" fill="none" stroke="#a2a2a2" stroke-linecap="round" stroke-width="5"/><line x1="81" y1="89" transform="translate(878.663 990.5)" fill="none" stroke="#a2a2a2" stroke-linecap="round" stroke-width="5"/></g></svg>