<svg xmlns="http://www.w3.org/2000/svg" xmlns:xlink="http://www.w3.org/1999/xlink" viewBox="0 0 1920 1080"><defs><clipPath id="b"><rect width="1920" height="1080"/></clipPath></defs><g id="a" clip-path="url(#b)"><rect width="1920" height="1080" fill="#1e1e1e"/><text transform="translate(954 803)" fill="#fff" font-size="100" font-family="ArialMT, Arial"><tspan x="-616.04" y="0">But the last</tspan><tspan y="0" font-family="Arial-BoldMT, Arial" font-weight="700"> </tspan><tspan y="0" fill="#aadafb" font-family="Arial-BoldMT, Arial" font-weight="700">index</tspan><tspan y="0" font-family="Arial-BoldMT, Arial" font-weight="700"> </tspan><tspan y="0">is only 11</tspan><tspan x="-769.775" y="115">because the first</tspan><tspan y="115" font-family="Arial-BoldMT, Arial" font-weight="700"> </tspan><tspan y="115" fill="#aadafb" font-family="Arial-BoldMT, Arial" font-weight="700">index</tspan><tspan y="115" font-family="Arial-BoldMT, Arial" font-weight="700"> </tspan><tspan y="115">is always</tspan><tspan y="115" font-family="Arial-BoldMT, Arial" font-weight="700"> </tspan><tspan y="115">0</tspan></text><text transform="translate(323 215)" fill="#fff" font-size="100" font-family="ArialMT, Arial"><tspan x="0" y="0">The length of the string is 12</tspan></text><text transform="translate(1519 597)" fill="#aadafb" font-size="100" font-family="CourierNewPS-BoldMT, Courier New" font-weight="700"><tspan x="0" y="0">10</tspan></text><text transform="translate(1658 597)" fill="#aadafb" font-size="100" font-family="CourierNewPS-BoldMT, Courier New" font-weight="700"><tspan x="0" y="0">11</tspan></text><text transform="translate(120 597)" fill="#aadafb" font-size="101" font-family="CourierNewPS-BoldMT, Courier New" font-weight="700" letter-spacing="0.075em"><tspan x="0" y="0" xml:space="preserve"> 0 1 2 3 4 5 6 7 8 9</tspan></text><text transform="translate(154 438)" fill="#fff" font-size="205" font-family="CourierNewPS-BoldMT, Courier New" font-weight="700" letter-spacing="0.05em"><tspan x="0" y="0">H</tspan><tspan y="0" font-size="208">ell</tspan><tspan y="0" font-size="208" letter-spacing="0.07em">o</tspan><tspan y="0" font-size="208" letter-spacing="0.045em"> </tspan><tspan y="0" font-size="208" letter-spacing="0.07em">th</tspan><tspan y="0" font-size="208" letter-spacing="0.03em">e</tspan><tspan y="0" font-size="208" letter-spacing="0.07em">re!</tspan></text><g transform="translate(147 275)" fill="none" stroke="#c9c9c9" stroke-width="5"><rect width="1640" height="394" rx="20" stroke="none"/><rect x="2.5" y="2.5" width="1635" height="389" rx="17.5" fill="none"/></g><line y2="390" transform="translate(285.5 277.5)" fill="none" stroke="#c9c9c9" stroke-width="5"/><line y2="390" transform="translate(420.5 276.5)" fill="none" stroke="#c9c9c9" stroke-width="5"/><line y2="390" transform="translate(557.5 278.5)" fill="none" stroke="#c9c9c9" stroke-width="5"/><line y2="390" transform="translate(693.5 278.5)" fill="none" stroke="#c9c9c9" stroke-width="5"/><line y2="390" transform="translate(830.5 278.5)" fill="none" stroke="#c9c9c9" stroke-width="5"/><line y2="390" transform="translate(966.5 278.5)" fill="none" stroke="#c9c9c9" stroke-width="5"/><line y2="390" transform="translate(1101.5 278.5)" fill="none" stroke="#c9c9c9" stroke-width="5"/><line y2="390" transform="translate(1239.5 278.5)" fill="none" stroke="#c9c9c9" stroke-width="5"/><line y2="390" transform="translate(1375.5 278.5)" fill="none" stroke="#c9c9c9" stroke-width="5"/><line y2="390" transform="translate(1511.5 278.5)" fill="none" stroke="#c9c9c9" stroke-width="5"/><line y2="390" transform="translate(1647.5 278.5)" fill="none" stroke="#c9c9c9" stroke-width="5"/><line x1="1633" transform="translate(147.5 471.5)" fill="none" stroke="#c9c9c9" stroke-width="7"/><g transform="translate(0 3.5)"><g transform="translate(0 991)"><path d="M30.5,0C47.345,0,61,13.208,61,29.5S0,45.792,0,29.5,13.655,0,30.5,0Z" transform="translate(13 50)" fill="#a3d882"/><path d="M61,29.5C61,45.792,47.345,59,30.5,59S0,45.792,0,29.5,61,13.208,61,29.5Z" transform="translate(13 -17)" fill="#a3d882"/><rect width="88" height="15" transform="translate(5)" fill="#251f1d"/><rect width="89" height="11" transform="translate(0 78)" fill="#251f1d"/><path d="M9.5,0,19,17H0Z" transform="translate(34 63)" fill="#251f1d"/><path d="M9.5,0,19,17H0Z" transform="translate(53 32) rotate(180)" fill="#251f1d"/></g><text transform="translate(91 1062)" fill="#a3d882" font-size="80" font-family="ArialMT, Arial"><tspan x="0" y="0">4.1 String Indexes</tspan></text><line x2="740.954" transform="translate(0.5 990.5)" fill="none" stroke="#a2a2a2" stroke-linecap="round" stroke-width="5"/><line x1="81" y1="89" transform="translate(741.454 990.5)" fill="none" stroke="#a2a2a2" stroke-linecap="round" stroke-width="5"/></g></g></svg>