<svg xmlns="http://www.w3.org/2000/svg" xmlns:xlink="http://www.w3.org/1999/xlink" viewBox="0 0 1920 1203"><defs><clipPath id="b"><rect width="1920" height="1203"/></clipPath></defs><g id="a" clip-path="url(#b)"><rect width="1920" height="1203" fill="#1e1e1e"/><text transform="translate(84.347 476.5)" fill="#bc89bd" font-size="99" font-family="CourierNewPS-BoldMT, Courier New" font-weight="700"><tspan x="0" y="0">for</tspan><tspan y="0" fill="#fff"> </tspan><tspan y="0" fill="#f8d949" letter-spacing="0.1em">(</tspan><tspan y="0" fill="#679ad1">let</tspan><tspan y="0" fill="#fff"> </tspan><tspan y="0" fill="#aadafb">i</tspan><tspan y="0" fill="#fff"> </tspan><tspan y="0" fill="#d4d4d4">=</tspan><tspan y="0" fill="#fff"> </tspan><tspan y="0" fill="#bacdab">0</tspan><tspan y="0" fill="#d4d4d4">;</tspan><tspan y="0" fill="#fff"> </tspan><tspan y="0" fill="#aadafb">i</tspan><tspan y="0" fill="#fff"> </tspan><tspan y="0" fill="#d4d4d4">&lt; </tspan><tspan y="0" fill="#bacdab">5</tspan><tspan y="0" fill="#d4d4d4">; </tspan><tspan y="0" fill="#aadafb">i</tspan><tspan y="0" fill="#d4d4d4">+</tspan><tspan y="0" fill="#d4d4d4" letter-spacing="0.1em">+</tspan><tspan y="0" fill="#f8d949">) {</tspan><tspan fill="#fff"><tspan x="0" y="149" xml:space="preserve">  </tspan><tspan y="149" fill="#aadafb">console</tspan><tspan y="149">.</tspan><tspan y="149" fill="#dcdcaf">log</tspan><tspan y="149" fill="#679ad1">(</tspan><tspan y="149" fill="#c5947c">&quot;i:&quot;</tspan><tspan y="149" fill="#d4d4d4">,</tspan><tspan y="149"> </tspan><tspan y="149" fill="#aadafb">i</tspan><tspan y="149" fill="#679ad1">)</tspan></tspan><tspan fill="#f8d949"><tspan x="0" y="298">}</tspan></tspan></text><g transform="translate(-14.653 13.5)"><text transform="translate(99 111)" fill="#c5947c" font-size="90" font-family="ArialMT, Arial"><tspan x="0" y="0">Initialization</tspan></text><text transform="translate(334 198)" fill="#fff" font-size="80" font-family="ArialMT, Arial"><tspan x="-175.664" y="0">where the</tspan><tspan x="-204.609" y="80">loop begins</tspan></text></g><g transform="translate(5.347 13.5)"><text transform="translate(744 111)" fill="#aadafb" font-size="90" font-family="ArialMT, Arial"><tspan x="0" y="0">Condition</tspan></text><text transform="translate(934 198)" fill="#fff" font-size="80" font-family="ArialMT, Arial"><tspan x="-224.512" y="0">if this is true,</tspan><tspan x="-226.855" y="80">keep looping</tspan></text></g><g transform="translate(-14.653 13.5)"><text transform="translate(1336 111)" fill="#bc89bd" font-size="90" font-family="ArialMT, Arial"><tspan x="0" y="0">Increment</tspan></text><text transform="translate(1576 198)" fill="#fff" font-size="80" font-family="ArialMT, Arial"><tspan x="-271.309" y="0">what to change</tspan><tspan x="-255.723" y="80">with each loop</tspan></text></g><g transform="translate(0 125.5)"><rect width="557.897" height="88" transform="translate(0 995)" fill="#251f1d"/><g transform="translate(0 991)"><path d="M30.5,0C47.345,0,61,13.208,61,29.5S0,45.792,0,29.5,13.655,0,30.5,0Z" transform="translate(13 50)" fill="#a3d882"/><path d="M61,29.5C61,45.792,47.345,59,30.5,59S0,45.792,0,29.5,61,13.208,61,29.5Z" transform="translate(13 -17)" fill="#a3d882"/><rect width="88" height="15" transform="translate(5)" fill="#251f1d"/><rect width="89" height="11" transform="translate(0 78)" fill="#251f1d"/><path d="M9.5,0,19,17H0Z" transform="translate(34 63)" fill="#251f1d"/><path d="M9.5,0,19,17H0Z" transform="translate(53 30) rotate(180)" fill="#251f1d"/></g><text transform="translate(91 1062)" fill="#a3d882" font-size="75" font-family="ArialMT, Arial"><tspan x="0" y="0">5.1 For Loops</tspan></text><path d="M1756.5,978.5l81.337,89.223H1756.5Z" transform="translate(-1198.603 8.777)" fill="#251f1d"/><line x2="557.734" transform="translate(0.5 990.5)" fill="none" stroke="#a2a2a2" stroke-linecap="round" stroke-width="5"/><line x1="81" y1="89" transform="translate(558.234 990.5)" fill="none" stroke="#a2a2a2" stroke-linecap="round" stroke-width="5"/></g><path d="M3636.664,1556.156v77.153c0,35.9-41.152,35.557-41.152,35.557H1993.326s-38.115-3.665-38.115,35.8v210.459c0,22.378,0,36.226,38.362,36.226,0,0,1663.032.911,1701.048,0s37.9-36.174,37.9-36.174l-2.089-359.019s.671-36.171-37.954-36.171h-21.721C3631.733,1519.984,3636.664,1556.156,3636.664,1556.156Z" transform="translate(-1883.864 -1132.984)" fill="none" stroke="#f8d949" stroke-linejoin="round" stroke-width="8"/><g transform="translate(383.347 387)" fill="none" stroke="#c5947c" stroke-width="8"><rect width="613" height="127" rx="22" stroke="none"/><rect x="4" y="4" width="605" height="119" rx="18" fill="none"/></g><g transform="translate(1017.347 387)" fill="none" stroke="#679ad1" stroke-width="8"><rect width="390" height="127" rx="22" stroke="none"/><rect x="4" y="4" width="382" height="119" rx="18" fill="none"/></g><g transform="translate(1439.347 387)" fill="none" stroke="#bc89bd" stroke-width="8"><rect width="212" height="127" rx="22" stroke="none"/><rect x="4" y="4" width="204" height="119" rx="18" fill="none"/></g><path d="M2358.653,3044.325v-59.172H2116.247" transform="translate(-1928.026 -2657.325)" fill="none" stroke="#c5947c" stroke-linecap="round" stroke-width="8"/><path d="M2401.237,3044.325v-59.172h-284.99" transform="translate(-1329.002 -2657.325)" fill="none" stroke="#679ad1" stroke-linecap="round" stroke-width="8"/><path d="M3481.12,3050.719v-62.391h227.938" transform="translate(-1994.653 -2660.5)" fill="none" stroke="#bc89bd" stroke-linecap="round" stroke-width="8"/><g transform="translate(-306.653 864.5)"><text transform="translate(1361 111)" fill="#f8d949" font-size="90" font-family="ArialMT, Arial"><tspan x="0" y="0">Loop Body</tspan></text><text transform="translate(1576 198)" fill="#fff" font-size="80" font-family="ArialMT, Arial"><tspan x="-402.461" y="0">the code that runs with</tspan><tspan x="-449.199" y="80">each iteration of the loop </tspan></text></g><path d="M2436.471,3044.325v-59.172H2116.247" transform="translate(3538.706 3865.095) rotate(180)" fill="none" stroke="#f8d949" stroke-linecap="round" stroke-width="8"/></g></svg>