<svg xmlns="http://www.w3.org/2000/svg" xmlns:xlink="http://www.w3.org/1999/xlink" viewBox="0 0 1448 1448"><defs><clipPath id="b"><rect width="1448" height="1448"/></clipPath></defs><g id="a" clip-path="url(#b)"><rect width="1448" height="1448" fill="#1e1e1e"/><g transform="translate(0 379.94)"><g transform="translate(0 990.956)"><path d="M27.846,0C43.224,0,55.691,12.058,55.691,26.933S0,41.807,0,26.933,12.467,0,27.846,0Z" transform="translate(11.869 45.649)" fill="#a3d882"/><path d="M55.691,28.437c0,14.875-12.467,26.933-27.846,26.933S0,43.311,0,28.437,55.691,13.562,55.691,28.437Z" transform="translate(11.869 -17.024)" fill="#a3d882"/><rect width="80.342" height="13.695" transform="translate(4.565)" fill="#251f1d"/><rect width="81.255" height="19.172" transform="translate(0 71.212)" fill="#251f1d"/><path d="M8.673,0l8.673,15.521H0Z" transform="translate(31.041 57.517)" fill="#251f1d"/><path d="M8.673,0l8.673,15.521H0Z" transform="translate(48.388 29.215) rotate(180)" fill="#251f1d"/></g><text transform="translate(88 1051.06)" fill="#a3d882" font-size="60" font-family="ArialMT, Arial"><tspan x="0" y="0">6.1 Problem Solving</tspan></text><line x2="627.106" transform="translate(0.456 990.5)" fill="none" stroke="#a2a2a2" stroke-linecap="round" stroke-width="5"/><line x1="73.951" y1="81.255" transform="translate(627.563 990.5)" fill="none" stroke="#a2a2a2" stroke-linecap="round" stroke-width="5"/></g><rect width="1448" height="114" transform="translate(0 38)" fill="#be5151"/><rect width="1448" height="114" transform="translate(0 367)" fill="#882ea3"/><rect width="1448" height="114" transform="translate(0 696)" fill="#2e76a3"/><rect width="1448" height="114" transform="translate(0 1026)" fill="#2a8149"/><text transform="translate(724 451)" fill="#f8f8f8" font-size="80" font-family="ArialMT, Arial"><tspan x="-664.492" y="0">2. FIND A SOLUTION WITH WORDS</tspan></text><text transform="translate(724 900)" fill="#f8f8f8" font-size="80" font-family="ArialMT, Arial"><tspan x="-380.234" y="0">Small and achievable</tspan><tspan x="-315.723" y="92">Answer questions</tspan></text><text transform="translate(724 122)" fill="#f8f8f8" font-size="80" font-family="ArialMT, Arial"><tspan x="-616.406" y="0">1. UNDERSTAND THE PROBLEM</tspan></text><text transform="translate(724 241)" fill="#f8f8f8" font-size="80" font-family="ArialMT, Arial"><tspan x="-471.328" y="0">Restate in your own words</tspan><tspan x="-693.77" y="92">Ask questions and think of edge cases </tspan></text><text transform="translate(724 781)" fill="#f8f8f8" font-size="80" font-family="ArialMT, Arial"><tspan x="-574.961" y="0">3. PLAN YOUR CHECKPOINTS</tspan></text><text transform="translate(724 1110)" fill="#f8f8f8" font-size="80" font-family="ArialMT, Arial"><tspan x="-364.512" y="0">4. START CODING! </tspan></text><text transform="translate(724 570)" fill="#f8f8f8" font-size="80" font-family="ArialMT, Arial"><tspan x="-635.84" y="0">First, solve the problem as a human</tspan><tspan x="-529.238" y="92">Then, convert to pseudo code</tspan></text><text transform="translate(724 1229)" fill="#f8f8f8" font-size="80" font-family="ArialMT, Arial"><tspan x="-555.801" y="0">Start with setting up some tests</tspan><tspan x="-331.27" y="92">Focus on progress</tspan></text></g></svg>